<?xml version="1.0" encoding="UTF-8" standalone="no"?>
<svg
   xmlns:dc="http://purl.org/dc/elements/1.1/"
   xmlns:cc="http://creativecommons.org/ns#"
   xmlns:rdf="http://www.w3.org/1999/02/22-rdf-syntax-ns#"
   xmlns:svg="http://www.w3.org/2000/svg"
   xmlns="http://www.w3.org/2000/svg"
   xmlns:sodipodi="http://sodipodi.sourceforge.net/DTD/sodipodi-0.dtd"
   xmlns:inkscape="http://www.inkscape.org/namespaces/inkscape"
   width="47.667828mm"
   height="22.906942mm"
   viewBox="0 0 47.667828 22.906942"
   version="1.1"
   id="svg8"
   inkscape:version="1.0.2 (e86c8708, 2021-01-15)"
   sodipodi:docname="tmp-logo.svg">
  <defs
     id="defs2" />
  <sodipodi:namedview
     id="base"
     pagecolor="#ffffff"
     bordercolor="#666666"
     borderopacity="1.0"
     inkscape:pageopacity="0.0"
     inkscape:pageshadow="2"
     inkscape:zoom="1.0748023"
     inkscape:cx="155.44335"
     inkscape:cy="95.348022"
     inkscape:document-units="mm"
     inkscape:current-layer="layer1"
     inkscape:document-rotation="0"
     showgrid="false"
     inkscape:window-width="1252"
     inkscape:window-height="716"
     inkscape:window-x="0"
     inkscape:window-y="23"
     inkscape:window-maximized="0"
     units="mm"
     lock-margins="true"
     fit-margin-top="0"
     fit-margin-left="0"
     fit-margin-right="0"
     fit-margin-bottom="0" />
  <metadata
     id="metadata5">
    <rdf:RDF>
      <cc:Work
         rdf:about="">
        <dc:format>image/svg+xml</dc:format>
        <dc:type
           rdf:resource="http://purl.org/dc/dcmitype/StillImage" />
        <dc:title></dc:title>
      </cc:Work>
    </rdf:RDF>
  </metadata>
  <g
     inkscape:label="Layer 1"
     inkscape:groupmode="layer"
     id="layer1"
     transform="translate(-0.10077206,-0.17637956)">
    <path
       style="fill:#000000;stroke-width:0.0174463"
       d="m 37.331099,23.083321 h -1.23869 V 12.013668 0.94401474 h 1.23869 1.238682 V 12.013668 23.083321 Z m -29.2456598,-0.05661 -1.5584415,0.0044 -0.011725,-0.01173 -0.011722,-0.0117 V 13.284338 3.5609548 H 3.3021611 0.10077206 V 1.8686678 0.17637956 H 4.8723249 9.6438777 V 11.586235 22.99609 l 1.7e-6,0.0131 1.7e-6,0.0131 z m 7.1935818,0.0043 h -1.72718 V 11.769421 0.50785922 h 2.046431 2.04643 l 0.02315,0.0654231 0.02315,0.0654231 0.139544,0.38381758 0.139542,0.3838175 0.041,0.1134011 0.041,0.1134014 0.167686,0.453602 0.167685,0.4536033 0.103721,0.2965867 0.10372,0.2965865 0.04256,0.1046775 0.04257,0.1046772 0.237711,0.6455114 0.23771,0.6455113 0.08369,0.2355251 0.08369,0.235525 0.191237,0.5146652 0.191235,0.5146638 0.161124,0.4448794 0.161121,0.4448807 0.02416,0.061062 0.02416,0.061062 0.158777,0.4361556 0.158776,0.436157 0.145931,0.4012638 0.145931,0.4012643 0.165961,0.4536031 0.165961,0.4536022 0.194579,0.5233879 0.194576,0.523387 0.05683,0.157017 0.05683,0.157017 0.07921,0.218078 0.07921,0.218078 0.212499,0.575726 0.212496,0.575727 0.0221,0.06106 0.0221,0.06106 0.07079,0.191909 0.07078,0.191908 0.04616,0.130848 0.04616,0.130846 0.131197,0.357649 0.131197,0.357648 0.0237,0.06106 0.0237,0.06106 0.07862,0.218079 0.07862,0.218078 0.112811,0.314033 0.112809,0.314032 0.02967,0.07403 0.02967,0.07403 0.0138,-0.0085 0.0138,-0.0085 0.04799,-0.135292 0.04799,-0.135292 0.03958,-0.104677 0.03958,-0.104677 0.134254,-0.366371 0.134256,-0.366373 0.07487,-0.209354 0.07487,-0.209356 0.182764,-0.497218 0.182762,-0.497218 0.125787,-0.340202 0.125788,-0.340202 0.04337,-0.122124 0.04337,-0.122124 0.02408,-0.06106 0.02408,-0.06106 0.116103,-0.314033 0.116101,-0.314033 0.112644,-0.305309 0.112641,-0.30531 0.137074,-0.383818 0.137072,-0.3838166 0.05178,-0.1395703 0.05178,-0.1395699 0.05424,-0.1391721 0.05424,-0.1391731 V 9.225844 9.211137 l 0.06895,-0.1775982 0.06895,-0.1775982 0.155966,-0.4274332 0.155968,-0.4274342 0.08826,-0.2442475 0.08826,-0.2442474 0.20862,-0.5670034 0.20862,-0.5670041 0.151153,-0.4099867 0.151153,-0.409988 0.08395,-0.2268012 0.08395,-0.2268009 0.105987,-0.2878626 0.10599,-0.2878643 0.08162,-0.2268012 0.08162,-0.2268009 0.06088,-0.1657406 0.06088,-0.1657389 0.06639,-0.1831857 0.0664,-0.1831856 0.104525,-0.2878643 0.104525,-0.2878625 0.107115,-0.2878629 0.107117,-0.2878643 0.08808,-0.2442475 0.08808,-0.2442473 0.14759,-0.401264 0.147589,-0.40126396 0.07952,-0.21371731 0.07952,-0.21371569 h 2.047653 2.047656 V 11.769466 23.031026 h -1.731549 -1.731542 l 0.0044,-7.59265 0.0044,-7.5926537 -0.02128,0.021293 -0.02128,0.021293 -0.06671,0.1785049 -0.06671,0.1785045 -0.05332,0.148294 -0.05332,0.1482924 -0.02278,0.052339 -0.02278,0.052338 -0.05265,0.148294 -0.05266,0.1482927 -0.04624,0.1221237 -0.04624,0.1221237 -0.04134,0.1134013 -0.04134,0.113401 -0.02846,0.078508 -0.02846,0.078508 -0.375206,1.0027395 -0.375203,1.00274 -0.01119,0.01787 -0.01119,0.01786 -0.0028,0.01813 -0.0028,0.01813 -0.264156,0.70589 -0.264156,0.70589 -0.01525,0.03489 -0.01525,0.03489 -0.05496,0.157016 -0.05495,0.157015 -0.03223,0.08723 -0.03223,0.08723 -0.178403,0.479773 -0.178404,0.479772 -0.02333,0.05702 -0.02332,0.05702 -0.0012,0.0083 -0.0012,0.0083 -0.05381,0.144073 -0.05381,0.144075 -0.05222,0.13957 -0.05223,0.13957 -0.06614,0.183186 -0.06614,0.183185 -0.04462,0.113401 -0.04462,0.1134 -0.321551,0.86359 -0.321552,0.86359 -0.03562,0.09595 -0.03561,0.09596 -0.133142,0.348925 -0.133144,0.348926 -0.08741,0.235523 -0.08741,0.235525 -0.04923,0.130846 -0.04922,0.130849 -0.274464,0.741464 -0.274463,0.741467 -0.05157,0.13521 -0.05157,0.135209 -1.224332,-2.59e-4 -1.224332,-2.57e-4 -0.03806,-0.100061 -0.03806,-0.100058 -0.168386,-0.453604 -0.168388,-0.453604 -0.244825,-0.654234 -0.244822,-0.654236 -0.02256,-0.06978 -0.02255,-0.06979 -0.03775,-0.09595 -0.03775,-0.09596 -0.03395,-0.09595 -0.03395,-0.09595 -0.02584,-0.05497 -0.02584,-0.05498 v -0.0194 -0.0194 l -0.0179,-0.0303 -0.0179,-0.03029 -0.06714,-0.191922 -0.06716,-0.191908 -0.06087,-0.16574 -0.06087,-0.165739 -0.439842,-1.1689 -0.439841,-1.1689 -0.237112,-0.636788 -0.23711,-0.636789 -0.03988,-0.113401 -0.03988,-0.1134 -0.03351,-0.08723 -0.03352,-0.08723 -0.149295,-0.401264 -0.149294,-0.401264 -0.04687,-0.122124 -0.04687,-0.122123 -0.07524,-0.209356 -0.07524,-0.209355 -0.06306,-0.165739 -0.06306,-0.16574 -0.06831,-0.187069 -0.06831,-0.187069 -0.0337,-0.08335 -0.0337,-0.08335 -0.05655,-0.157015 -0.05655,-0.157016 -0.05729,-0.148294 -0.05729,-0.148293 -0.08982,-0.2442473 -0.08982,-0.2442474 -0.08609,-0.2217215 -0.08609,-0.2217218 V 9.204344 9.193594 L 17.46125,9.0159706 17.392933,8.8384717 17.214894,8.3586992 17.036856,7.8789268 17.02153,7.8623539 17.006204,7.845781 v 7.592613 7.592614 z m 26.758205,-11.536744 -1.635587,0.0074 2.57e-4,-0.01441 2.58e-4,-0.01441 0.754304,-0.487841 0.7543,-0.487843 0.375099,-0.242583 0.375092,-0.242584 0.165739,-0.1089654 0.165739,-0.108965 0.179344,-0.1156121 0.179341,-0.115612 0.05096,-0.026347 0.05095,-0.026347 0.101183,-2.577e-4 0.101182,-2.58e-4 0.157398,-0.032486 0.157394,-0.032486 0.13919,-0.055596 0.139193,-0.055596 0.130845,-0.080804 0.130851,-0.080804 0.175091,-0.175449 0.175094,-0.175448 0.0663,-0.1011904 0.06631,-0.1011884 0.07933,-0.1491282 0.07933,-0.1491296 0.05815,-0.1481302 0.05815,-0.1481315 0.05179,-0.1860011 0.05179,-0.1860012 0.03549,-0.1831854 0.03549,-0.1831857 0.0282,-0.2442478 0.02821,-0.2442471 2.61e-4,-0.4448807 L 45.49952,5.9074077 45.47956,5.7154995 45.4596,5.52359 45.425451,5.3229577 45.391302,5.1223261 45.357462,4.9818571 45.323622,4.8413885 45.261948,4.6621347 45.200277,4.4828826 45.121673,4.3169476 45.043072,4.1510125 44.9436,4.0086035 44.844128,3.8661959 44.76439,3.7737876 44.684652,3.6813793 44.554223,3.5761672 44.423797,3.4709534 44.313291,3.4091543 44.202788,3.3473563 44.077347,3.3047904 43.951906,3.2622228 43.838507,3.2384642 43.725108,3.2147056 43.576814,3.2026013 43.42852,3.1904969 43.192996,3.0216881 42.957471,2.8528794 42.765564,2.71485 42.573656,2.5768217 42.416636,2.4611569 42.25962,2.3454918 41.857487,2.056903 l -0.40212,-0.2885964 -0.356777,-0.2598 -0.356778,-0.2597988 -0.09595,-0.065457 -0.09595,-0.065457 -0.08478,-0.06075 -0.08477,-0.0607497 1.620044,2.048e-5 1.620048,2.181e-5 0.235525,0.0272188 0.235525,0.027219 0.161026,0.034697 0.161029,0.034697 0.212757,0.060076 0.212758,0.060076 0.09726,0.036195 0.09726,0.036195 0.226805,0.1112394 0.226799,0.1112392 0.183185,0.1199876 0.183184,0.1199873 0.130852,0.1057138 0.130845,0.1057152 0.157985,0.1547244 0.157985,0.1547244 0.06952,0.078508 0.06952,0.078508 0.125204,0.1693696 0.1252,0.1693681 0.08828,0.1408631 0.08828,0.1408631 0.11185,0.2131566 0.11185,0.2131563 0.08671,0.2180771 0.08672,0.2180784 0.05569,0.1717634 0.05569,0.1717624 0.0574,0.2295015 0.05741,0.2295005 0.03669,0.2180788 0.0367,0.2180782 0.02683,0.235525 0.0268,0.2355236 0.01051,0.3838188 0.01051,0.3838176 -0.02082,0.3053092 -0.02082,0.3053094 -0.02621,0.2006323 -0.02621,0.2006316 -0.05051,0.2529716 -0.0505,0.2529701 -0.0614,0.2228133 -0.06141,0.2228123 -0.08944,0.2395137 -0.08944,0.2395136 -0.134978,0.2710702 -0.134985,0.2710698 -0.15054,0.2261474 -0.150544,0.2261485 -0.0968,0.1221241 -0.09679,0.1221233 -0.184823,0.187895 -0.184823,0.187896 -0.141963,0.114343 -0.141962,0.114343 -0.165742,0.110093 -0.165736,0.110094 -0.183185,0.09608 -0.183188,0.09608 -0.208078,0.08186 -0.208079,0.08186 -0.269014,0.06864 -0.269021,0.06863 -0.264369,0.03722 -0.264372,0.03722 -1.635587,0.0074 z m -0.863642,-3.4038746 -0.04793,0.07189 -0.03925,-0.014625 -0.03925,-0.014628 v -0.012117 -0.012117 l 0.106061,-0.4450199 0.106061,-0.4450213 -0.01158,-0.061847 -0.01161,-0.061847 -0.02415,-0.046727 -0.02415,-0.046726 -0.11826,-0.1021685 -0.118257,-0.10217 -0.122301,-0.1225026 -0.122301,-0.1225027 -0.08018,-0.1217448 -0.08019,-0.1217444 -0.05341,-0.1221251 -0.05341,-0.1221237 -0.03099,-0.1133999 -0.03099,-0.1134013 -6.87e-4,-0.2268009 -6.87e-4,-0.2268023 0.03054,-0.1112895 0.03051,-0.1112895 0.04158,-0.1029292 0.04158,-0.1029292 0.05852,-0.097702 0.05852,-0.0977 0.120508,-0.1296873 0.1205,-0.1296874 0.09758,-0.074235 0.09757,-0.074236 0.104673,-0.062188 0.10468,-0.06219 0.157017,-0.062227 0.157016,-0.062227 0.104677,-0.027955 0.104676,-0.027955 0.139574,-0.025993 0.139568,-0.025997 0.218079,-0.010337 0.218079,-0.010341 0.148294,0.020084 0.148294,0.020081 0.139567,0.035058 0.139568,0.035057 0.157016,0.076822 0.157017,0.076822 0.140704,0.1132632 0.140705,0.1132632 0.105384,0.1365611 0.105388,0.1365624 0.06253,0.1221237 0.06254,0.1221241 0.03715,0.095306 0.03715,0.095307 0.03332,0.1402598 0.03332,0.1402601 -0.0093,0.052298 -0.0093,0.052297 -0.05134,0.1031033 -0.05135,0.1031017 v 0.076282 0.076282 l 0.02707,0.064791 0.02707,0.06479 0.120889,0.1854006 0.120892,0.1854006 0.03522,0.082173 0.03522,0.082175 v 0.062758 0.062757 l -0.07651,0.071004 -0.0765,0.071005 -0.09535,0.04798 -0.09535,0.04798 -0.01147,0.1526516 -0.01147,0.1526527 -0.03308,0.1482927 -0.03308,0.1482926 -0.04403,0.1259166 -0.04403,0.1259165 -0.05796,0.1083772 -0.05796,0.1083762 -0.04919,0.036124 -0.04919,0.036124 -0.20376,0.00597 -0.203756,0.00597 -0.165764,-0.020551 -0.165759,-0.020551 -0.141079,-0.032572 -0.141076,-0.032572 -0.09559,-0.035766 -0.09559,-0.035765 -0.04496,-0.047927 -0.04496,-0.047928 -0.0626,-0.098958 -0.0626,-0.098957 -0.04491,-0.1337804 -0.04491,-0.1337808 -0.0095,-0.1510799 -0.0095,-0.1510785 0.0626,0.08563 0.06259,0.085631 0.03517,0.094 0.03517,0.094 0.03339,0.064617 0.03339,0.064616 0.07559,0.072378 0.07558,0.072377 0.09885,0.062428 0.09885,0.062428 0.127952,0.050709 0.127955,0.050707 0.104677,0.022166 0.10468,0.022169 0.130844,-2.58e-4 0.130845,-2.577e-4 0.09487,-0.033702 0.09486,-0.033702 0.03123,-0.1270327 0.03123,-0.1270345 0.05604,-0.1687789 0.05603,-0.1687803 2.75e-4,-0.1744617 2.71e-4,-0.1744629 -0.02821,-0.063632 -0.02824,-0.063632 0.2208,-0.073994 0.220803,-0.073995 0.02089,-0.010842 0.02089,-0.010842 -0.04949,-0.096642 -0.04948,-0.096642 -0.121016,-0.1910458 -0.121016,-0.1910455 -0.0292,-0.0745 -0.0292,-0.074499 v -0.097326 -0.097327 l 0.02927,-0.063698 0.02927,-0.063698 0.03526,-0.051179 0.03526,-0.051178 -0.0039,-0.053499 -0.0039,-0.0535 -0.04498,-0.1482927 -0.04498,-0.148294 -0.06955,-0.1395703 -0.06956,-0.1395702 -0.07661,-0.1073624 -0.07661,-0.1073641 -0.09497,-0.084545 -0.09497,-0.084545 -0.09675,-0.058525 -0.09675,-0.058526 -0.104556,-0.042231 -0.104553,-0.042232 -0.138478,-0.034465 -0.138475,-0.034465 -0.180543,-0.018854 -0.180546,-0.018854 -0.163486,0.011925 -0.163485,0.011938 -0.178389,0.04031 -0.178396,0.040309 -0.155336,0.063934 -0.15534,0.063933 -0.113403,0.062236 -0.113399,0.062235 -0.11847,0.094754 -0.118473,0.094754 -0.09424,0.114256 -0.09425,0.1142571 -0.06163,0.1247344 -0.06163,0.1247357 -0.03505,0.1391394 -0.03506,0.1391395 -2.58e-4,0.1673106 -2.57e-4,0.1673096 0.03346,0.1309055 0.0335,0.1309056 0.05176,0.1141657 0.05177,0.1141643 0.07051,0.1038276 0.07051,0.1038265 0.127749,0.1273615 0.127749,0.1273605 0.117639,0.077585 0.117642,0.077585 0.0344,0.048318 0.03441,0.048318 0.01051,0.067949 0.01051,0.067949 -0.07988,0.3750936 -0.07988,0.3750952 -0.02601,0.078508 -0.02601,0.078508 -0.04793,0.071889 z m 0.617274,-1.1200306 -0.03958,0.1033123 -0.0293,-0.1044566 -0.02931,-0.104457 2.75e-4,-0.09481 2.71e-4,-0.09481 0.0324,-0.069784 0.0324,-0.069786 0.05551,-0.055647 0.05551,-0.055649 0.0731,-0.034218 0.07311,-0.034218 0.06293,-0.028704 0.06294,-0.028704 0.05586,-0.054614 0.05586,-0.054614 0.01574,-0.029439 0.01573,-0.029442 -0.0386,-0.076117 -0.0386,-0.076116 -0.06106,-0.035192 -0.06106,-0.035192 -0.183188,1.223e-4 -0.183185,1.226e-4 -0.09596,0.023801 -0.09595,0.023801 -0.09271,0.043195 -0.09271,0.043195 0.01075,0.01075 0.01075,0.01075 0.273858,0.035429 0.273861,0.035429 v 0.061062 0.061062 l -0.235524,-0.00521 -0.235525,-0.00521 -0.04627,-0.018009 -0.04628,-0.018009 -0.08458,-0.1048771 -0.08457,-0.1048757 -0.08912,-0.1127476 -0.08912,-0.1127461 -0.01993,-0.066492 -0.01993,-0.066492 V 5.5985538 5.555387 l 0.05065,-0.1031016 0.05065,-0.1031031 0.0881,-0.1831857 0.0881,-0.1831854 0.06625,-0.085294 0.06625,-0.085292 0.111238,-0.066779 0.111239,-0.066778 0.263857,-0.08666 0.263854,-0.086661 0.113403,-0.029978 0.113402,-0.029978 0.174462,3.779e-4 0.174459,3.779e-4 0.10772,0.034969 0.107714,0.03497 0.11107,0.062111 0.111063,0.062111 0.08922,0.094337 0.08922,0.094337 0.0525,0.103997 0.0525,0.1039976 0.06331,0.1620227 0.06331,0.1620234 0.0097,0.048405 0.0097,0.048406 -0.02968,0.057403 -0.02968,0.057403 -0.08336,0.083357 -0.08336,0.083357 -0.06748,0.016298 -0.06748,0.016298 -0.139568,0.030744 -0.139571,0.030744 -0.130844,0.06161 -0.130852,0.061609 -0.113399,0.1150153 -0.1134,0.1150136 -0.05755,0.1150284 -0.05755,0.1150266 -0.06457,0.03571 -0.06457,0.035709 -0.09503,0.019916 -0.09504,0.019916 -0.05708,0.043543 -0.05709,0.043543 -0.02673,0.089918 -0.02669,0.089916 -6.87e-4,0.036086 -6.88e-4,0.036088 -0.03957,0.1033119 z m 0.58571,-1.1087022 0.08201,0.00223 0.08373,-0.018321 0.08373,-0.018322 0.03305,-0.024688 0.03301,-0.024688 0.008,-0.083582 0.008,-0.083582 -0.08441,-0.060619 -0.08441,-0.06062 -0.118796,-0.00672 -0.118793,-0.00672 -0.256056,0.020664 -0.256052,0.020661 -0.05111,0.010224 -0.05111,0.010224 0.01261,-0.1551527 0.01261,-0.1551523 0.0055,-0.00549 0.0055,-0.00549 0.233151,0.044482 0.233151,0.044481 0.176774,0.015961 0.17677,0.015961 0.09772,0.030803 0.09772,0.030803 0.0945,0.091529 0.0945,0.091529 0.08161,0.012234 0.08161,0.012234 0.07721,-0.010585 0.0772,-0.010585 0.0662,-0.033774 0.06621,-0.033774 0.03205,-0.059496 0.03205,-0.059495 -0.0213,-0.064528 -0.0213,-0.064527 -0.06276,-0.047522 -0.06277,-0.047522 -0.04913,-0.046635 -0.04913,-0.046635 v -0.08597 -0.08597 l -0.01865,-0.05353 -0.01866,-0.053532 -0.06266,-0.029731 -0.06265,-0.029731 -0.09473,0.00977 -0.09473,0.00977 -0.04203,-0.01915 -0.04203,-0.019149 v -0.012492 -0.012492 l -0.06984,-0.074156 -0.06984,-0.074156 -0.09101,0.00874 -0.09101,0.00874 -0.08776,0.095662 -0.08776,0.095661 -0.09359,-0.049852 -0.09359,-0.049853 -0.05471,6.527e-4 -0.05471,6.528e-4 -0.03779,0.021187 -0.03779,0.02119 -0.03374,0.043616 -0.03374,0.043615 -0.01707,0.05234 -0.01704,0.052338 -0.155638,0.00873 -0.155639,0.00873 -0.03686,0.021142 -0.03686,0.021142 -0.02206,0.053246 -0.02206,0.053244 0.01075,0.08263 0.01075,0.082631 -0.04585,0.078508 -0.04586,0.078508 -0.05862,0.1019917 -0.05862,0.101992 v 0.015597 0.015597 l 0.112983,0.051231 0.112987,0.051229 0.126901,0.02679 0.126901,0.02679 0.209353,0.026787 0.209353,0.02679 0.122125,0.01526 0.122126,0.015257 0.08201,0.00223 z"
       id="path849" />
  </g>
</svg>
