<?xml version="1.0" encoding="UTF-8" standalone="no"?>
<svg
   xmlns:dc="http://purl.org/dc/elements/1.1/"
   xmlns:cc="http://creativecommons.org/ns#"
   xmlns:rdf="http://www.w3.org/1999/02/22-rdf-syntax-ns#"
   xmlns:svg="http://www.w3.org/2000/svg"
   xmlns="http://www.w3.org/2000/svg"
   xmlns:sodipodi="http://sodipodi.sourceforge.net/DTD/sodipodi-0.dtd"
   xmlns:inkscape="http://www.inkscape.org/namespaces/inkscape"
   width="3.7131569mm"
   height="3.5673614mm"
   viewBox="0 0 3.7131569 3.5673614"
   version="1.1"
   id="svg8"
   inkscape:version="1.0.2 (e86c8708, 2021-01-15)"
   sodipodi:docname="patreon.svg">
  <defs
     id="defs2" />
  <sodipodi:namedview
     id="base"
     pagecolor="#ffffff"
     bordercolor="#666666"
     borderopacity="1.0"
     inkscape:pageopacity="0.0"
     inkscape:pageshadow="2"
     inkscape:zoom="5.56"
     inkscape:cx="31.304958"
     inkscape:cy="16.111597"
     inkscape:document-units="mm"
     inkscape:current-layer="layer1"
     inkscape:document-rotation="0"
     showgrid="false"
     inkscape:window-width="1280"
     inkscape:window-height="717"
     inkscape:window-x="0"
     inkscape:window-y="23"
     inkscape:window-maximized="1"
     lock-margins="true"
     fit-margin-top="0"
     fit-margin-left="0"
     fit-margin-right="0"
     fit-margin-bottom="0" />
  <metadata
     id="metadata5">
    <rdf:RDF>
      <cc:Work
         rdf:about="">
        <dc:format>image/svg+xml</dc:format>
        <dc:type
           rdf:resource="http://purl.org/dc/dcmitype/StillImage" />
        <dc:title></dc:title>
      </cc:Work>
    </rdf:RDF>
  </metadata>
  <g
     inkscape:label="Layer 1"
     inkscape:groupmode="layer"
     id="layer1"
     transform="translate(0.04694897,-0.04295027)">
    <path
       style="fill:#000000;stroke-width:0.00381128"
       d="M 0.27891578,3.6103116 H -0.04694897 V 1.826631 0.04295027 H 0.27891578 0.60478045 V 1.826631 3.6103116 Z m 2.07333782,-0.8973288 -0.1181497,0.00125 -0.046606,-0.0053 -0.046605,-0.0053 -0.044865,-0.00799 -0.044865,-0.00799 -0.053358,-0.01368 -0.053358,-0.01368 -0.04383,-0.015059 -0.04383,-0.015058 -0.049547,-0.020948 -0.049547,-0.020948 -0.04383,-0.023161 -0.04383,-0.023161 -0.045563,-0.028253 -0.045563,-0.028253 -0.049719,-0.03742 -0.049719,-0.03742 -0.041924,-0.037902 -0.041924,-0.037901 -0.032129,-0.033995 -0.03213,-0.033995 -0.026971,-0.032396 -0.026971,-0.032396 -0.029431,-0.040402 -0.029431,-0.040402 -0.024236,-0.039635 -0.024236,-0.039635 -0.019463,-0.036207 -0.019463,-0.036207 -0.019511,-0.04383 -0.019511,-0.04383 -0.016882,-0.046555 -0.016882,-0.046555 -0.011553,-0.041104 -0.011554,-0.041105 -0.011051,-0.053358 -0.011051,-0.053358 -0.00696,-0.051452 -0.006959,-0.051452 7.72e-6,-0.116244 7.36e-6,-0.1162442 0.004972,-0.036207 0.00497,-0.036207 0.00758,-0.04383 0.00758,-0.04383 L 1.037326,1.0529256 1.050289,1.0014736 1.069197,0.9462099 1.088105,0.8909463 1.103855,0.855186 1.119605,0.8194253 1.140794,0.7770544 1.161983,0.7346835 1.1861,0.6945822 1.210218,0.6544809 1.239204,0.6130762 1.268191,0.5716715 1.300105,0.5328689 1.332019,0.4940663 1.37141,0.4528085 1.410801,0.411551 1.452761,0.3753118 1.494721,0.3390726 1.536645,0.3080085 1.578569,0.2769448 1.615405,0.2533312 1.65224,0.2297178 1.697347,0.2050277 1.742454,0.1803376 1.795215,0.1572313 1.847977,0.1341248 1.89812,0.1169162 1.948263,0.09970759 1.999715,0.08633111 2.051167,0.07295487 l 0.053358,-0.0089803 0.053358,-0.0089801 0.04383,-0.0048641 0.04383,-0.0048641 0.087659,2.048e-5 0.08766,2.049e-5 0.04383,0.0046687 0.04383,0.0046685 0.045735,0.0077205 0.045735,0.0077208 0.038113,0.0090287 0.038113,0.0090285 L 2.721953,0.1019932 2.767688,0.1158435 2.824997,0.1384523 2.882306,0.1610609 2.930137,0.1853502 2.977968,0.2096395 3.023374,0.2371636 3.06878,0.2646877 3.106382,0.291506 3.143984,0.3183243 3.178796,0.3470387 3.213609,0.3757531 3.26444,0.4256348 3.315271,0.4755168 3.350593,0.517441 3.385915,0.559365 3.411961,0.5955722 3.438007,0.6317794 3.459542,0.666081 l 0.021535,0.0343016 0.021408,0.038805 0.021408,0.038805 0.019772,0.0431373 0.019772,0.0431375 0.018013,0.0476411 0.018013,0.0476409 0.013782,0.0476412 0.013783,0.047641 0.00982,0.045735 0.00982,0.045735 0.00771,0.051452 0.00771,0.051452 0.00206,0.099859 0.00206,0.099859 -0.0046,0.050687 -0.0046,0.050687 -0.00924,0.055125 -0.00924,0.055125 -0.014936,0.057308 -0.014936,0.057308 -0.017113,0.048484 -0.017113,0.048483 -0.023192,0.052516 -0.023192,0.052516 -0.02512,0.045735 -0.02512,0.045735 L 3.449099,2.1123516 3.420392,2.1560706 3.39729,2.1866716 3.374188,2.2172726 3.34475,2.2515746 3.315312,2.2858766 3.264464,2.3357586 3.213616,2.3856406 3.178803,2.4143546 3.14399,2.4430686 3.106335,2.4699526 3.06868,2.4968366 3.026809,2.5224726 2.984938,2.5481086 2.925863,2.5775636 2.866788,2.6070186 2.811524,2.6281486 2.75626,2.6492796 2.710525,2.6625146 2.66479,2.6757496 l -0.04383,0.00975 -0.04383,0.00975 -0.053358,0.00823 -0.053358,0.00823 -0.1181497,0.00125 z"
       id="path847" />
  </g>
</svg>
